<svg xmlns="http://www.w3.org/2000/svg" viewBox="0 0 3600 3600" width="3600" height="3600"><g><path d="M1842.286 3301.788A1510.300 1510.300 0 0 1 594.033 2706.816" fill="none" stroke="#14B8A6" stroke-width="245.60" stroke-linecap="round"/><path d="M594.033 2706.816A1510.300 1510.300 0 0 1 2991.046 868.819" fill="none" stroke="#0A1A30" stroke-width="245.60" stroke-linecap="round"/><path d="M490.92 1800.01L777.21 1799.97" fill="none" stroke="#0A1A30" stroke-width="106.46" stroke-linecap="round"/><path d="M1779.58 532.04L1779.52 756.60" fill="none" stroke="#0A1A30" stroke-width="106.72" stroke-linecap="round"/><path d="M608 30Q449 30 330.5 -40.5Q212 -111 146 -237.5Q80 -364 80 -533Q80 -710 145 -839.5Q210 -969 326.5 -1039.5Q443 -1110 600 -1110Q763 -1110 877.5 -1035Q992 -960 1049.5 -821Q1107 -682 1099 -490H919V-554Q916 -753 838 -851.5Q760 -950 606 -950Q441 -950 355 -844Q269 -738 269 -540Q269 -349 355 -244Q441 -139 600 -139Q707 -139 786 -188Q865 -237 910 -329L1081 -270Q1018 -127 891.5 -48.5Q765 30 608 30ZM209 -490V-633H1007V-490Z" transform="translate(974.80 2515.20) scale(1.390250)" fill="#0A1A30"/><path d="M2128.81 2782.82L2454.23 3108.04L3190.35 2169.31" fill="none" stroke="#14B8A6" stroke-width="247.28" stroke-linecap="round" stroke-linejoin="round"/><circle cx="3305.46" cy="1800.00" r="135.00" fill="#14B8A6"/></g></svg>